<?xml version="1.0" encoding="UTF-8" standalone="no"?>
<svg width="800" height="400" xmlns="http://www.w3.org/2000/svg">
  <!-- Background -->
  <rect width="800" height="400" fill="#212529" rx="5" ry="5" />
  
  <!-- Header bar -->
  <rect width="800" height="50" fill="#2c3034" />
  <text x="20" y="32" font-family="Arial" font-size="20" fill="#0d6efd">Forex Market Analyzer</text>
  <text x="750" y="30" font-family="Arial" font-size="12" fill="#0dcaf0">v1.1</text>
  
  <!-- Chart area -->
  <rect x="20" y="100" width="760" height="230" fill="#2c3034" rx="3" ry="3" />
  
  <!-- Candlestick chart representation -->
  <line x1="50" y1="210" x2="750" y2="210" stroke="#495057" stroke-width="1" stroke-dasharray="4,4" />
  
  <!-- Candles -->
  <rect x="100" y="170" width="10" height="60" fill="#dc3545" />
  <line x1="105" y1="165" x2="105" y2="170" stroke="#dc3545" stroke-width="2" />
  <line x1="105" y1="230" x2="105" y2="235" stroke="#dc3545" stroke-width="2" />
  
  <rect x="130" y="160" width="10" height="70" fill="#dc3545" />
  <line x1="135" y1="155" x2="135" y2="160" stroke="#dc3545" stroke-width="2" />
  <line x1="135" y1="230" x2="135" y2="240" stroke="#dc3545" stroke-width="2" />
  
  <rect x="160" y="180" width="10" height="50" fill="#198754" />
  <line x1="165" y1="175" x2="165" y2="180" stroke="#198754" stroke-width="2" />
  <line x1="165" y1="230" x2="165" y2="235" stroke="#198754" stroke-width="2" />
  
  <rect x="190" y="190" width="10" height="30" fill="#198754" />
  <line x1="195" y1="185" x2="195" y2="190" stroke="#198754" stroke-width="2" />
  <line x1="195" y1="220" x2="195" y2="225" stroke="#198754" stroke-width="2" />
  
  <rect x="220" y="195" width="10" height="25" fill="#198754" />
  <line x1="225" y1="190" x2="225" y2="195" stroke="#198754" stroke-width="2" />
  <line x1="225" y1="220" x2="225" y2="225" stroke="#198754" stroke-width="2" />
  
  <rect x="250" y="200" width="10" height="30" fill="#dc3545" />
  <line x1="255" y1="195" x2="255" y2="200" stroke="#dc3545" stroke-width="2" />
  <line x1="255" y1="230" x2="255" y2="235" stroke="#dc3545" stroke-width="2" />
  
  <rect x="280" y="180" width="10" height="35" fill="#dc3545" />
  <line x1="285" y1="175" x2="285" y2="180" stroke="#dc3545" stroke-width="2" />
  <line x1="285" y1="215" x2="285" y2="220" stroke="#dc3545" stroke-width="2" />
  
  <rect x="310" y="165" width="10" height="45" fill="#198754" />
  <line x1="315" y1="160" x2="315" y2="165" stroke="#198754" stroke-width="2" />
  <line x1="315" y1="210" x2="315" y2="215" stroke="#198754" stroke-width="2" />
  
  <rect x="340" y="170" width="10" height="40" fill="#198754" />
  <line x1="345" y1="165" x2="345" y2="170" stroke="#198754" stroke-width="2" />
  <line x1="345" y1="210" x2="345" y2="215" stroke="#198754" stroke-width="2" />
  
  <rect x="370" y="160" width="10" height="50" fill="#198754" />
  <line x1="375" y1="155" x2="375" y2="160" stroke="#198754" stroke-width="2" />
  <line x1="375" y1="210" x2="375" y2="215" stroke="#198754" stroke-width="2" />
  
  <rect x="400" y="180" width="10" height="30" fill="#dc3545" />
  <line x1="405" y1="175" x2="405" y2="180" stroke="#dc3545" stroke-width="2" />
  <line x1="405" y1="210" x2="405" y2="215" stroke="#dc3545" stroke-width="2" />
  
  <rect x="430" y="190" width="10" height="35" fill="#dc3545" />
  <line x1="435" y1="185" x2="435" y2="190" stroke="#dc3545" stroke-width="2" />
  <line x1="435" y1="225" x2="435" y2="230" stroke="#dc3545" stroke-width="2" />
  
  <rect x="460" y="200" width="10" height="30" fill="#198754" />
  <line x1="465" y1="195" x2="465" y2="200" stroke="#198754" stroke-width="2" />
  <line x1="465" y1="230" x2="465" y2="235" stroke="#198754" stroke-width="2" />
  
  <rect x="490" y="185" width="10" height="35" fill="#198754" />
  <line x1="495" y1="180" x2="495" y2="185" stroke="#198754" stroke-width="2" />
  <line x1="495" y1="220" x2="495" y2="225" stroke="#198754" stroke-width="2" />
  
  <rect x="520" y="165" width="10" height="45" fill="#198754" />
  <line x1="525" y1="160" x2="525" y2="165" stroke="#198754" stroke-width="2" />
  <line x1="525" y1="210" x2="525" y2="215" stroke="#198754" stroke-width="2" />
  
  <rect x="550" y="170" width="10" height="40" fill="#dc3545" />
  <line x1="555" y1="165" x2="555" y2="170" stroke="#dc3545" stroke-width="2" />
  <line x1="555" y1="210" x2="555" y2="215" stroke="#dc3545" stroke-width="2" />
  
  <rect x="580" y="180" width="10" height="50" fill="#dc3545" />
  <line x1="585" y1="175" x2="585" y2="180" stroke="#dc3545" stroke-width="2" />
  <line x1="585" y1="230" x2="585" y2="235" stroke="#dc3545" stroke-width="2" />
  
  <rect x="610" y="210" width="10" height="30" fill="#198754" />
  <line x1="615" y1="205" x2="615" y2="210" stroke="#198754" stroke-width="2" />
  <line x1="615" y1="240" x2="615" y2="245" stroke="#198754" stroke-width="2" />
  
  <rect x="640" y="195" width="10" height="35" fill="#198754" />
  <line x1="645" y1="190" x2="645" y2="195" stroke="#198754" stroke-width="2" />
  <line x1="645" y1="230" x2="645" y2="235" stroke="#198754" stroke-width="2" />
  
  <rect x="670" y="175" width="10" height="45" fill="#198754" />
  <line x1="675" y1="170" x2="675" y2="175" stroke="#198754" stroke-width="2" />
  <line x1="675" y1="220" x2="675" y2="225" stroke="#198754" stroke-width="2" />
  
  <rect x="700" y="155" width="10" height="55" fill="#198754" />
  <line x1="705" y1="150" x2="705" y2="155" stroke="#198754" stroke-width="2" />
  <line x1="705" y1="210" x2="705" y2="215" stroke="#198754" stroke-width="2" />
  
  <!-- Pattern markers -->
  <circle cx="105" cy="165" r="6" fill="#0d6efd" stroke="#ffffff" stroke-width="1" />
  <circle cx="315" cy="160" r="6" fill="#6f42c1" stroke="#ffffff" stroke-width="1" />
  <circle cx="525" cy="160" r="6" fill="#198754" stroke="#ffffff" stroke-width="1" />
  <circle cx="705" cy="150" r="6" fill="#0dcaf0" stroke="#ffffff" stroke-width="1" />
  
  <!-- Tab panels -->
  <rect x="20" y="350" width="760" height="40" fill="#2c3034" rx="3" ry="3" />
  <text x="50" y="375" font-family="Arial" font-size="14" fill="#ffffff">Price Action</text>
  <text x="180" y="375" font-family="Arial" font-size="14" fill="#6c757d">Fair Value Gaps</text>
  <text x="340" y="375" font-family="Arial" font-size="14" fill="#6c757d">Trade Opportunities</text>
  
  <!-- Controls -->
  <rect x="20" y="60" width="150" height="30" fill="#0d6efd" rx="3" ry="3" />
  <text x="45" y="80" font-family="Arial" font-size="14" fill="#ffffff">Upload CSV</text>
  
  <rect x="180" y="60" width="150" height="30" fill="#198754" rx="3" ry="3" />
  <text x="205" y="80" font-family="Arial" font-size="14" fill="#ffffff">Analyze</text>
</svg>